<svg id="facebook" xmlns="http://www.w3.org/2000/svg" viewBox="0 0 9.2 19.48"><defs><style>.cls-1{fill:#3c5a9a;}</style></defs><title>facebook color</title><path class="cls-1" d="M9.7,22.08V12.31H7.52c0-.09,0-.16,0-.23,0-1,0-2,0-3,0-.19,0-.26.25-.25H9.63c0-.11,0-.21,0-.31,0-.88,0-1.76,0-2.64a3.07,3.07,0,0,1,1.28-2.6,3.49,3.49,0,0,1,1.88-.66c1.24-.05,2.49,0,3.73-.05a.23.23,0,0,1,.16.16c0,1,0,2,0,3.06,0,.15-.07.18-.2.18-.56,0-1.13,0-1.69,0a1.73,1.73,0,0,0-.54.1.74.74,0,0,0-.52.7c0,.67,0,1.34,0,2.05h2.73c.21,0,.24.07.23.26-.08,1-.16,1.94-.22,2.91,0,.19-.08.23-.25.23H13.79c0,.12,0,.22,0,.32q0,4.59,0,9.18c0,.33,0,.33-.32.33H9.7Z" transform="translate(-7.5 -2.6)"/></svg>