<svg id="twitter" xmlns="http://www.w3.org/2000/svg" viewBox="0 0 18.25 14.89"><defs><style>.cls-1{fill:#28aae1;}</style></defs><title>twitter color</title><path class="cls-1" d="M2.71,18.54A7.69,7.69,0,0,0,8.23,17a3.77,3.77,0,0,1-3.51-2.61,3.85,3.85,0,0,0,1.67-.07A3.77,3.77,0,0,1,4.24,13a3.67,3.67,0,0,1-.83-2.37c.27.1.53.22.8.3A4.82,4.82,0,0,0,5,11a3.83,3.83,0,0,1-1.59-2.7A3.64,3.64,0,0,1,3.95,6a10.75,10.75,0,0,0,7.73,3.92c0-.24-.05-.46-.07-.69A3.54,3.54,0,0,1,12.26,7a3.65,3.65,0,0,1,2.89-1.63,3.6,3.6,0,0,1,2.77,1,.41.41,0,0,0,.43.11,7.76,7.76,0,0,0,2-.76l.18-.09a3.89,3.89,0,0,1-1.56,2,8,8,0,0,0,2-.51l-.19.27-.21.28a7.54,7.54,0,0,1-1.33,1.26.25.25,0,0,0-.11.24,10.84,10.84,0,0,1-1.42,5.67,10.46,10.46,0,0,1-2.76,3.23A10,10,0,0,1,11,19.93a11.2,11.2,0,0,1-4,.19,10.62,10.62,0,0,1-4.28-1.53Z" transform="translate(-2.71 -5.33)"/></svg>