<svg id="vk" xmlns="http://www.w3.org/2000/svg" viewBox="0 0 17.42 9.95"><defs><style>.cls-1{fill:#4c75a3;}</style></defs><title>VK color</title><path class="cls-1" d="M5,8H6.16a.79.79,0,0,1,.76.5,14,14,0,0,0,.82,1.72,12.8,12.8,0,0,0,1.06,1.65,2.15,2.15,0,0,0,.4.41l.16.09a.33.33,0,0,0,.46-.15,1.27,1.27,0,0,0,.12-.33c0-.21.07-.41.09-.62A9.64,9.64,0,0,0,10,10a4.11,4.11,0,0,0-.1-.93.89.89,0,0,0-.37-.57,1.27,1.27,0,0,0-.42-.16L9,8.3c-.06,0-.09-.05-.06-.11A.65.65,0,0,1,9.07,8a1.12,1.12,0,0,1,.59-.36,3.83,3.83,0,0,1,.71-.11c.52,0,1,0,1.55,0a3.65,3.65,0,0,1,.89.12.71.71,0,0,1,.57.63,3.55,3.55,0,0,1,0,.85v0q0,.71,0,1.42c0,.3,0,.6,0,.89a1.56,1.56,0,0,0,.09.54.65.65,0,0,0,.19.27.24.24,0,0,0,.26,0,.85.85,0,0,0,.28-.18,3.91,3.91,0,0,0,.58-.67,13.49,13.49,0,0,0,1.45-2.58l.22-.52a1.2,1.2,0,0,1,.1-.18A.46.46,0,0,1,17,8h.11l2.67,0a1.8,1.8,0,0,1,.53,0l.12,0a.36.36,0,0,1,.21.39,1.91,1.91,0,0,1-.22.68,8.63,8.63,0,0,1-.66,1.09c-.44.64-.93,1.25-1.4,1.87-.15.19-.29.4-.42.6a1.54,1.54,0,0,0-.14.33.45.45,0,0,0,0,.38,1.78,1.78,0,0,0,.24.33c.21.21.42.42.64.62a11.6,11.6,0,0,1,1.43,1.54c.12.17.23.35.34.53a.92.92,0,0,1,.12.32.46.46,0,0,1-.16.45,1,1,0,0,1-.5.21l-.26,0-2.07,0h-.06a1.67,1.67,0,0,1-1.08-.25,3.37,3.37,0,0,1-.82-.71L15,15.77a2.68,2.68,0,0,0-.47-.43,1.07,1.07,0,0,0-.24-.13.42.42,0,0,0-.43.08,1,1,0,0,0-.28.44,2.7,2.7,0,0,0-.15.72c0,.14,0,.28,0,.42a.55.55,0,0,1-.43.55,1,1,0,0,1-.31,0h-1a5,5,0,0,1-1.36-.21,6.31,6.31,0,0,1-2.39-1.3A9.08,9.08,0,0,1,6.63,14.6,21.9,21.9,0,0,1,5,12.1Q4.34,11,3.78,9.79c-.17-.35-.33-.71-.49-1.07a1.15,1.15,0,0,1-.08-.26.31.31,0,0,1,.21-.38A1.06,1.06,0,0,1,3.83,8H5Z" transform="translate(-3.2 -7.55)"/></svg>