<svg xmlns="http://www.w3.org/2000/svg" xmlns:xlink="http://www.w3.org/1999/xlink" width="0" height="0" style="position:absolute">
	
		<symbol id="checkmark" viewBox="0 0 128 128">
			<rect width="128" height="128" rx="50%" ry="50%" fill="transparent"></rect><path class="st0" d="M92.271 48.056l-6.904-6.904a1.8 1.8 0 0 0-2.546 0L54.816 69.158 45.24 59.58c-.675-.675-1.87-.675-2.545 0l-6.966 6.967a1.8 1.8 0 0 0 0 2.545l17.753 17.754a1.8 1.8 0 0 0 2.546 0L92.27 50.602a1.801 1.801 0 0 0 0-2.546z"></path>
		</symbol>
	
		<symbol id="facebook" viewBox="0 0 9.2 19.48">
			<defs><style>.cls-1{fill:#3c5a9a}</style></defs><title>facebook color</title><path class="cls-1" d="M9.7 22.08v-9.77H7.52v-.23-3c0-.19 0-.26.25-.25h1.86v-.31-2.64a3.07 3.07 0 0 1 1.28-2.6 3.49 3.49 0 0 1 1.88-.66c1.24-.05 2.49 0 3.73-.05a.23.23 0 0 1 .16.16v3.06c0 .15-.07.18-.2.18h-1.69a1.73 1.73 0 0 0-.54.1.74.74 0 0 0-.52.7v2.05h2.73c.21 0 .24.07.23.26-.08 1-.16 1.94-.22 2.91 0 .19-.08.23-.25.23h-2.43v9.5c0 .33 0 .33-.32.33H9.7z" transform="translate(-7.5 -2.6)"></path>
		</symbol>
	
		<symbol id="twitter" viewBox="0 0 18.25 14.89">
			<defs><style>.cls-1{fill:#28aae1}</style></defs><title>twitter color</title><path class="cls-1" d="M2.71 18.54A7.69 7.69 0 0 0 8.23 17a3.77 3.77 0 0 1-3.51-2.61 3.85 3.85 0 0 0 1.67-.07A3.77 3.77 0 0 1 4.24 13a3.67 3.67 0 0 1-.83-2.37c.27.1.53.22.8.3A4.82 4.82 0 0 0 5 11a3.83 3.83 0 0 1-1.59-2.7A3.64 3.64 0 0 1 3.95 6a10.75 10.75 0 0 0 7.73 3.92c0-.24-.05-.46-.07-.69A3.54 3.54 0 0 1 12.26 7a3.65 3.65 0 0 1 2.89-1.63 3.6 3.6 0 0 1 2.77 1 .41.41 0 0 0 .43.11 7.76 7.76 0 0 0 2-.76l.18-.09a3.89 3.89 0 0 1-1.56 2 8 8 0 0 0 2-.51l-.19.27-.21.28a7.54 7.54 0 0 1-1.33 1.26.25.25 0 0 0-.11.24 10.84 10.84 0 0 1-1.42 5.67 10.46 10.46 0 0 1-2.76 3.23A10 10 0 0 1 11 19.93a11.2 11.2 0 0 1-4 .19 10.62 10.62 0 0 1-4.28-1.53z" transform="translate(-2.71 -5.33)"></path>
		</symbol>
	
		<symbol id="vk" viewBox="0 0 17.42 9.95">
			<defs><style>.cls-1{fill:#4c75a3}</style></defs><title>VK color</title><path class="cls-1" d="M5 8h1.16a.79.79 0 0 1 .76.5 14 14 0 0 0 .82 1.72 12.8 12.8 0 0 0 1.06 1.65 2.15 2.15 0 0 0 .4.41l.16.09a.33.33 0 0 0 .46-.15 1.27 1.27 0 0 0 .12-.33c0-.21.07-.41.09-.62A9.64 9.64 0 0 0 10 10a4.11 4.11 0 0 0-.1-.93.89.89 0 0 0-.37-.57 1.27 1.27 0 0 0-.42-.16L9 8.3c-.06 0-.09-.05-.06-.11A.65.65 0 0 1 9.07 8a1.12 1.12 0 0 1 .59-.36 3.83 3.83 0 0 1 .71-.11h1.55a3.65 3.65 0 0 1 .89.12.71.71 0 0 1 .57.63 3.55 3.55 0 0 1 0 .85v2.31a1.56 1.56 0 0 0 .09.54.65.65 0 0 0 .19.27.24.24 0 0 0 .26 0 .85.85 0 0 0 .28-.18 3.91 3.91 0 0 0 .58-.67 13.49 13.49 0 0 0 1.45-2.58l.22-.52a1.2 1.2 0 0 1 .1-.18A.46.46 0 0 1 17 8h2.78a1.8 1.8 0 0 1 .53 0h.12a.36.36 0 0 1 .21.39 1.91 1.91 0 0 1-.22.68 8.63 8.63 0 0 1-.66 1.09c-.44.64-.93 1.25-1.4 1.87-.15.19-.29.4-.42.6a1.54 1.54 0 0 0-.14.33.45.45 0 0 0 0 .38 1.78 1.78 0 0 0 .24.33c.21.21.42.42.64.62a11.6 11.6 0 0 1 1.43 1.54c.12.17.23.35.34.53a.92.92 0 0 1 .12.32.46.46 0 0 1-.16.45 1 1 0 0 1-.5.21h-2.39a1.67 1.67 0 0 1-1.08-.25 3.37 3.37 0 0 1-.82-.71l-.62-.61a2.68 2.68 0 0 0-.47-.43 1.07 1.07 0 0 0-.24-.13.42.42 0 0 0-.43.08 1 1 0 0 0-.28.44 2.7 2.7 0 0 0-.15.72v.42a.55.55 0 0 1-.43.55 1 1 0 0 1-.31 0h-1a5 5 0 0 1-1.36-.21 6.31 6.31 0 0 1-2.39-1.3 9.08 9.08 0 0 1-1.31-1.31A21.9 21.9 0 0 1 5 12.1Q4.34 11 3.78 9.79c-.17-.35-.33-.71-.49-1.07a1.15 1.15 0 0 1-.08-.26.31.31 0 0 1 .21-.38A1.06 1.06 0 0 1 3.83 8H5z" transform="translate(-3.2 -7.55)"></path>
		</symbol>
	
		<symbol id="yandex_home" viewBox="0 0 158 27">
			<g transform="translate(-40 -105)" fill="none" fill-rule="evenodd"><path fill="#F8F8F8" d="M0 0h1366v768H0z"></path><text transform="translate(0 72)" font-family="YandexSansLogotype-Light, Yandex Sans Logotype" font-size="31" font-weight="300"><tspan x="40" y="56" fill="#F00">Я</tspan><tspan x="60" y="56" fill="#333">ндекс Дом</tspan></text></g>
		</symbol>
	
</svg>
